<svg xmlns="http://www.w3.org/2000/svg" width="560" height="540" viewBox="0 0 560 540">
<rect width="100%" height="100%" fill="white"/>
<text x="70" y="28" font-family="Arial" font-size="18" font-weight="700">Leave-blastocyst-out DMR prediction</text>
<line x1="70" y1="475" x2="530" y2="475" stroke="#222"/>
<line x1="70" y1="45" x2="70" y2="475" stroke="#222"/>
<line x1="70.0" y1="475.0" x2="530.0" y2="45.0" stroke="#999" stroke-dasharray="5,5"/>
<circle cx="74.32" cy="471.99" r="3" fill="#4777b3" opacity="0.72"/>
<circle cx="70.00" cy="472.44" r="3" fill="#4777b3" opacity="0.72"/>
<circle cx="79.52" cy="475.00" r="3" fill="#4777b3" opacity="0.72"/>
<circle cx="98.48" cy="475.00" r="3" fill="#4777b3" opacity="0.72"/>
<circle cx="95.17" cy="474.87" r="3" fill="#4777b3" opacity="0.72"/>
<circle cx="235.60" cy="240.92" r="3" fill="#4777b3" opacity="0.72"/>
<circle cx="116.00" cy="475.00" r="3" fill="#4777b3" opacity="0.72"/>
<circle cx="106.80" cy="475.00" r="3" fill="#4777b3" opacity="0.72"/>
<circle cx="114.69" cy="466.85" r="3" fill="#4777b3" opacity="0.72"/>
<circle cx="70.00" cy="475.00" r="3" fill="#4777b3" opacity="0.72"/>
<circle cx="223.33" cy="272.18" r="3" fill="#4777b3" opacity="0.72"/>
<circle cx="70.00" cy="416.62" r="3" fill="#4777b3" opacity="0.72"/>
<circle cx="90.44" cy="471.47" r="3" fill="#4777b3" opacity="0.72"/>
<circle cx="254.00" cy="474.60" r="3" fill="#4777b3" opacity="0.72"/>
<circle cx="242.16" cy="84.96" r="3" fill="#4777b3" opacity="0.72"/>
<circle cx="162.00" cy="475.00" r="3" fill="#4777b3" opacity="0.72"/>
<circle cx="282.17" cy="149.31" r="3" fill="#4777b3" opacity="0.72"/>
<circle cx="185.00" cy="475.00" r="3" fill="#4777b3" opacity="0.72"/>
<circle cx="75.75" cy="475.00" r="3" fill="#4777b3" opacity="0.72"/>
<circle cx="70.00" cy="472.55" r="3" fill="#4777b3" opacity="0.72"/>
<circle cx="85.04" cy="365.10" r="3" fill="#4777b3" opacity="0.72"/>
<circle cx="70.00" cy="45.00" r="3" fill="#4777b3" opacity="0.72"/>
<circle cx="189.18" cy="364.64" r="3" fill="#4777b3" opacity="0.72"/>
<circle cx="116.73" cy="475.00" r="3" fill="#4777b3" opacity="0.72"/>
<circle cx="127.20" cy="475.00" r="3" fill="#4777b3" opacity="0.72"/>
<circle cx="78.76" cy="475.00" r="3" fill="#4777b3" opacity="0.72"/>
<circle cx="81.75" cy="475.00" r="3" fill="#4777b3" opacity="0.72"/>
<circle cx="70.00" cy="381.70" r="3" fill="#4777b3" opacity="0.72"/>
<circle cx="70.00" cy="274.81" r="3" fill="#4777b3" opacity="0.72"/>
<circle cx="101.96" cy="278.36" r="3" fill="#4777b3" opacity="0.72"/>
<circle cx="116.00" cy="475.00" r="3" fill="#4777b3" opacity="0.72"/>
<circle cx="70.00" cy="474.45" r="3" fill="#4777b3" opacity="0.72"/>
<circle cx="134.40" cy="467.30" r="3" fill="#4777b3" opacity="0.72"/>
<circle cx="78.36" cy="290.48" r="3" fill="#4777b3" opacity="0.72"/>
<circle cx="70.00" cy="466.50" r="3" fill="#4777b3" opacity="0.72"/>
<circle cx="91.03" cy="475.00" r="3" fill="#4777b3" opacity="0.72"/>
<circle cx="125.85" cy="171.95" r="3" fill="#4777b3" opacity="0.72"/>
<circle cx="146.67" cy="281.11" r="3" fill="#4777b3" opacity="0.72"/>
<circle cx="131.33" cy="227.96" r="3" fill="#4777b3" opacity="0.72"/>
<circle cx="300.00" cy="382.00" r="3" fill="#4777b3" opacity="0.72"/>
<circle cx="79.68" cy="257.68" r="3" fill="#4777b3" opacity="0.72"/>
<circle cx="70.00" cy="475.00" r="3" fill="#4777b3" opacity="0.72"/>
<circle cx="162.00" cy="449.12" r="3" fill="#4777b3" opacity="0.72"/>
<circle cx="85.33" cy="294.04" r="3" fill="#4777b3" opacity="0.72"/>
<circle cx="223.33" cy="54.39" r="3" fill="#4777b3" opacity="0.72"/>
<circle cx="70.00" cy="474.29" r="3" fill="#4777b3" opacity="0.72"/>
<circle cx="70.00" cy="458.11" r="3" fill="#4777b3" opacity="0.72"/>
<circle cx="70.00" cy="442.84" r="3" fill="#4777b3" opacity="0.72"/>
<circle cx="121.54" cy="459.45" r="3" fill="#4777b3" opacity="0.72"/>
<circle cx="77.08" cy="454.24" r="3" fill="#4777b3" opacity="0.72"/>
<circle cx="86.89" cy="446.80" r="3" fill="#4777b3" opacity="0.72"/>
<circle cx="70.00" cy="475.00" r="3" fill="#4777b3" opacity="0.72"/>
<circle cx="100.50" cy="475.00" r="3" fill="#4777b3" opacity="0.72"/>
<circle cx="70.00" cy="463.83" r="3" fill="#4777b3" opacity="0.72"/>
<circle cx="116.00" cy="475.00" r="3" fill="#4777b3" opacity="0.72"/>
<circle cx="87.41" cy="413.32" r="3" fill="#4777b3" opacity="0.72"/>
<circle cx="75.26" cy="469.31" r="3" fill="#4777b3" opacity="0.72"/>
<circle cx="147.64" cy="471.00" r="3" fill="#4777b3" opacity="0.72"/>
<circle cx="238.04" cy="260.12" r="3" fill="#4777b3" opacity="0.72"/>
<circle cx="95.49" cy="435.27" r="3" fill="#4777b3" opacity="0.72"/>
<circle cx="100.67" cy="475.00" r="3" fill="#4777b3" opacity="0.72"/>
<circle cx="116.00" cy="475.00" r="3" fill="#4777b3" opacity="0.72"/>
<circle cx="79.86" cy="449.44" r="3" fill="#4777b3" opacity="0.72"/>
<circle cx="79.20" cy="474.16" r="3" fill="#4777b3" opacity="0.72"/>
<circle cx="70.00" cy="45.00" r="3" fill="#4777b3" opacity="0.72"/>
<circle cx="77.08" cy="473.51" r="3" fill="#4777b3" opacity="0.72"/>
<circle cx="70.00" cy="468.13" r="3" fill="#4777b3" opacity="0.72"/>
<circle cx="70.00" cy="321.71" r="3" fill="#4777b3" opacity="0.72"/>
<circle cx="277.92" cy="337.31" r="3" fill="#4777b3" opacity="0.72"/>
<circle cx="70.00" cy="475.00" r="3" fill="#4777b3" opacity="0.72"/>
<circle cx="70.00" cy="467.12" r="3" fill="#4777b3" opacity="0.72"/>
<circle cx="98.48" cy="205.14" r="3" fill="#4777b3" opacity="0.72"/>
<circle cx="70.00" cy="348.66" r="3" fill="#4777b3" opacity="0.72"/>
<circle cx="123.33" cy="313.41" r="3" fill="#4777b3" opacity="0.72"/>
<circle cx="88.89" cy="475.00" r="3" fill="#4777b3" opacity="0.72"/>
<circle cx="70.00" cy="462.05" r="3" fill="#4777b3" opacity="0.72"/>
<circle cx="198.80" cy="94.62" r="3" fill="#4777b3" opacity="0.72"/>
<circle cx="96.29" cy="474.65" r="3" fill="#4777b3" opacity="0.72"/>
<circle cx="91.85" cy="475.00" r="3" fill="#4777b3" opacity="0.72"/>
<circle cx="144.61" cy="446.46" r="3" fill="#4777b3" opacity="0.72"/>
<circle cx="70.00" cy="475.00" r="3" fill="#4777b3" opacity="0.72"/>
<circle cx="102.48" cy="471.02" r="3" fill="#4777b3" opacity="0.72"/>
<circle cx="300.00" cy="475.00" r="3" fill="#4777b3" opacity="0.72"/>
<circle cx="142.03" cy="392.12" r="3" fill="#4777b3" opacity="0.72"/>
<circle cx="79.20" cy="474.41" r="3" fill="#4777b3" opacity="0.72"/>
<circle cx="186.53" cy="465.15" r="3" fill="#4777b3" opacity="0.72"/>
<circle cx="208.00" cy="130.79" r="3" fill="#4777b3" opacity="0.72"/>
<circle cx="219.50" cy="50.91" r="3" fill="#4777b3" opacity="0.72"/>
<circle cx="127.50" cy="474.98" r="3" fill="#4777b3" opacity="0.72"/>
<circle cx="83.14" cy="475.00" r="3" fill="#4777b3" opacity="0.72"/>
<circle cx="235.60" cy="344.44" r="3" fill="#4777b3" opacity="0.72"/>
<circle cx="227.85" cy="270.07" r="3" fill="#4777b3" opacity="0.72"/>
<circle cx="70.00" cy="475.00" r="3" fill="#4777b3" opacity="0.72"/>
<circle cx="131.33" cy="475.00" r="3" fill="#4777b3" opacity="0.72"/>
<circle cx="70.00" cy="443.85" r="3" fill="#4777b3" opacity="0.72"/>
<circle cx="171.44" cy="353.80" r="3" fill="#4777b3" opacity="0.72"/>
<circle cx="334.76" cy="425.99" r="3" fill="#4777b3" opacity="0.72"/>
<circle cx="249.47" cy="419.26" r="3" fill="#4777b3" opacity="0.72"/>
<circle cx="291.68" cy="432.35" r="3" fill="#4777b3" opacity="0.72"/>
<circle cx="111.79" cy="473.86" r="3" fill="#4777b3" opacity="0.72"/>
<circle cx="88.40" cy="475.00" r="3" fill="#4777b3" opacity="0.72"/>
<circle cx="82.96" cy="475.00" r="3" fill="#4777b3" opacity="0.72"/>
<circle cx="185.00" cy="95.11" r="3" fill="#4777b3" opacity="0.72"/>
<circle cx="70.00" cy="471.97" r="3" fill="#4777b3" opacity="0.72"/>
<circle cx="530.00" cy="469.45" r="3" fill="#4777b3" opacity="0.72"/>
<circle cx="97.60" cy="474.94" r="3" fill="#4777b3" opacity="0.72"/>
<circle cx="70.00" cy="473.77" r="3" fill="#4777b3" opacity="0.72"/>
<circle cx="77.31" cy="465.52" r="3" fill="#4777b3" opacity="0.72"/>
<circle cx="70.00" cy="468.15" r="3" fill="#4777b3" opacity="0.72"/>
<circle cx="70.00" cy="472.37" r="3" fill="#4777b3" opacity="0.72"/>
<circle cx="70.00" cy="474.96" r="3" fill="#4777b3" opacity="0.72"/>
<circle cx="83.63" cy="456.43" r="3" fill="#4777b3" opacity="0.72"/>
<circle cx="113.40" cy="475.00" r="3" fill="#4777b3" opacity="0.72"/>
<circle cx="125.20" cy="475.00" r="3" fill="#4777b3" opacity="0.72"/>
<circle cx="70.00" cy="470.42" r="3" fill="#4777b3" opacity="0.72"/>
<circle cx="319.17" cy="199.59" r="3" fill="#4777b3" opacity="0.72"/>
<circle cx="441.07" cy="339.13" r="3" fill="#4777b3" opacity="0.72"/>
<circle cx="201.87" cy="283.57" r="3" fill="#4777b3" opacity="0.72"/>
<circle cx="91.04" cy="403.74" r="3" fill="#4777b3" opacity="0.72"/>
<circle cx="124.56" cy="434.47" r="3" fill="#4777b3" opacity="0.72"/>
<circle cx="70.00" cy="471.28" r="3" fill="#4777b3" opacity="0.72"/>
<circle cx="70.00" cy="474.47" r="3" fill="#4777b3" opacity="0.72"/>
<circle cx="90.63" cy="45.00" r="3" fill="#4777b3" opacity="0.72"/>
<circle cx="83.39" cy="475.00" r="3" fill="#4777b3" opacity="0.72"/>
<circle cx="376.67" cy="58.85" r="3" fill="#4777b3" opacity="0.72"/>
<circle cx="143.46" cy="405.14" r="3" fill="#4777b3" opacity="0.72"/>
<circle cx="162.00" cy="370.58" r="3" fill="#4777b3" opacity="0.72"/>
<circle cx="77.67" cy="450.43" r="3" fill="#4777b3" opacity="0.72"/>
<circle cx="130.88" cy="412.43" r="3" fill="#4777b3" opacity="0.72"/>
<circle cx="177.33" cy="475.00" r="3" fill="#4777b3" opacity="0.72"/>
<circle cx="81.50" cy="475.00" r="3" fill="#4777b3" opacity="0.72"/>
<circle cx="116.47" cy="470.26" r="3" fill="#4777b3" opacity="0.72"/>
<circle cx="70.00" cy="471.64" r="3" fill="#4777b3" opacity="0.72"/>
<circle cx="99.13" cy="467.42" r="3" fill="#4777b3" opacity="0.72"/>
<circle cx="70.00" cy="475.00" r="3" fill="#4777b3" opacity="0.72"/>
<circle cx="96.15" cy="449.55" r="3" fill="#4777b3" opacity="0.72"/>
<circle cx="83.14" cy="45.00" r="3" fill="#4777b3" opacity="0.72"/>
<circle cx="121.48" cy="278.91" r="3" fill="#4777b3" opacity="0.72"/>
<circle cx="109.84" cy="431.77" r="3" fill="#4777b3" opacity="0.72"/>
<circle cx="357.50" cy="52.65" r="3" fill="#4777b3" opacity="0.72"/>
<circle cx="233.64" cy="286.70" r="3" fill="#4777b3" opacity="0.72"/>
<circle cx="227.90" cy="309.63" r="3" fill="#4777b3" opacity="0.72"/>
<circle cx="86.36" cy="474.04" r="3" fill="#4777b3" opacity="0.72"/>
<circle cx="70.00" cy="475.00" r="3" fill="#4777b3" opacity="0.72"/>
<circle cx="203.18" cy="472.35" r="3" fill="#4777b3" opacity="0.72"/>
<circle cx="277.00" cy="78.72" r="3" fill="#4777b3" opacity="0.72"/>
<circle cx="93.00" cy="384.34" r="3" fill="#4777b3" opacity="0.72"/>
<circle cx="77.08" cy="475.00" r="3" fill="#4777b3" opacity="0.72"/>
<circle cx="127.50" cy="371.68" r="3" fill="#4777b3" opacity="0.72"/>
<circle cx="223.83" cy="458.50" r="3" fill="#4777b3" opacity="0.72"/>
<circle cx="70.00" cy="357.07" r="3" fill="#4777b3" opacity="0.72"/>
<circle cx="397.11" cy="46.18" r="3" fill="#4777b3" opacity="0.72"/>
<circle cx="247.78" cy="102.54" r="3" fill="#4777b3" opacity="0.72"/>
<circle cx="121.24" cy="474.20" r="3" fill="#4777b3" opacity="0.72"/>
<circle cx="138.92" cy="473.50" r="3" fill="#4777b3" opacity="0.72"/>
<circle cx="70.00" cy="475.00" r="3" fill="#4777b3" opacity="0.72"/>
<text x="280.0" y="522" text-anchor="middle" font-family="Arial" font-size="13">observed target-stage DMR mean beta</text>
<text x="20" y="270.0" transform="rotate(-90 20 270.0)" text-anchor="middle" font-family="Arial" font-size="13">predicted DMR mean beta</text>
</svg>